<?xml version="1.0" encoding="utf-8"?>
<!-- Generator: Adobe Illustrator 15.0.0, SVG Export Plug-In  -->
<!DOCTYPE svg PUBLIC "-//W3C//DTD SVG 1.1//EN" "http://www.w3.org/Graphics/SVG/1.1/DTD/svg11.dtd" [
	<!ENTITY ns_flows "http://ns.adobe.com/Flows/1.0/">
]>
<svg version="1.1"
	 xmlns="http://www.w3.org/2000/svg" xmlns:xlink="http://www.w3.org/1999/xlink" xmlns:a="http://ns.adobe.com/AdobeSVGViewerExtensions/3.0/"
	 x="0px" y="0px" width="1100px" height="1100px" viewBox="0 -0.562 1100 1100" enable-background="new 0 -0.562 1100 1100"
	 xml:space="preserve">
<defs>
</defs>
<path d="M1100,550.007c0,303.759-246.236,549.992-549.994,549.992C246.237,1099.999,0,853.766,0,550.007
	C0,246.246,246.237,0,550.006,0C853.764,0,1100,246.246,1100,550.007z M550.006,425.53c-68.75,0-124.477,55.729-124.477,124.477
	c0,68.744,55.727,124.462,124.477,124.462c68.738,0,124.469-55.718,124.469-124.462C674.475,481.258,618.744,425.53,550.006,425.53z
	"/>
<path fill="#161616" d="M550.006,425.53c-68.75,0-124.477,55.729-124.477,124.477c0,68.744,55.727,124.462,124.477,124.462
	c68.738,0,124.469-55.718,124.469-124.462C674.475,481.258,618.744,425.53,550.006,425.53z M1070.781,554.567
	c0,289.523-234.711,524.237-524.238,524.237c-289.531,0-524.246-234.714-524.246-524.237c0-289.539,234.715-524.252,524.246-524.252
	C836.07,30.315,1070.781,265.028,1070.781,554.567z"/>
<linearGradient id="SVGID_1_" gradientUnits="userSpaceOnUse" x1="265.8037" y1="-345.1289" x2="679.9766" y2="-345.1289" gradientTransform="matrix(-0.8343 0.5513 -0.5513 -0.8343 985.2005 374.2361)">
	<stop  offset="0" style="stop-color:#161616"/>
	<stop  offset="0.1125" style="stop-color:#1A1A1A"/>
	<stop  offset="0.2137" style="stop-color:#252525"/>
	<stop  offset="0.3107" style="stop-color:#373737"/>
	<stop  offset="0.405" style="stop-color:#515151"/>
	<stop  offset="0.4965" style="stop-color:#727272"/>
	<stop  offset="0.5169" style="stop-color:#7A7A7A"/>
	<stop  offset="0.5642" style="stop-color:#606060"/>
	<stop  offset="0.6266" style="stop-color:#454545"/>
	<stop  offset="0.6949" style="stop-color:#303030"/>
	<stop  offset="0.7709" style="stop-color:#212121"/>
	<stop  offset="0.8608" style="stop-color:#191919"/>
	<stop  offset="1" style="stop-color:#161616"/>
</linearGradient>
<path fill="url(#SVGID_1_)" d="M625.129,913.96l213.9-142.038l150.113,90.414c0,0-71.204,86.831-146.253,131.807
	c-118.729,71.143-209.447,81.158-209.447,81.158L625.129,913.96z"/>
<linearGradient id="SVGID_2_" gradientUnits="userSpaceOnUse" x1="391.7813" y1="106.3818" x2="756.0295" y2="138.2494">
	<stop  offset="0" style="stop-color:#161616"/>
	<stop  offset="0.1237" style="stop-color:#191919"/>
	<stop  offset="0.2231" style="stop-color:#232323"/>
	<stop  offset="0.314" style="stop-color:#343434"/>
	<stop  offset="0.3999" style="stop-color:#4C4C4C"/>
	<stop  offset="0.4815" style="stop-color:#6A6A6A"/>
	<stop  offset="0.5169" style="stop-color:#7A7A7A"/>
	<stop  offset="0.5642" style="stop-color:#606060"/>
	<stop  offset="0.6266" style="stop-color:#454545"/>
	<stop  offset="0.6949" style="stop-color:#303030"/>
	<stop  offset="0.7709" style="stop-color:#212121"/>
	<stop  offset="0.8608" style="stop-color:#191919"/>
	<stop  offset="1" style="stop-color:#161616"/>
</linearGradient>
<path fill="url(#SVGID_2_)" d="M680.354,206.216l-231.846-2.681L396.61,51.183c0,0,76.6-21.528,164.098-21.528
	c67.28,0,200.823,45.702,200.823,45.702L680.354,206.216z"/>
<path fill="#2D2D2D" stroke="#161616" d="M939.724,554.565h-0.859c0,108.34-43.904,206.416-114.902,277.416
	c-71.004,70.999-169.081,114.911-277.418,114.911c-108.343,0-206.419-43.912-277.422-114.911
	c-70.999-71-114.908-169.076-114.908-277.416c0-108.347,43.909-206.425,114.908-277.427
	c71.003-71.002,169.08-114.909,277.422-114.909c108.337,0,206.415,43.907,277.418,114.909
	c70.998,71.001,114.902,169.08,114.902,277.427H939.724h0.853c0-217.625-176.419-394.042-394.033-394.042
	c-217.622,0.004-394.037,176.417-394.037,394.042c0,217.616,176.416,394.03,394.037,394.03
	c217.614,0,394.033-176.414,394.033-394.03H939.724z"/>
<path d="M945.96,554.565h-0.846c0,110.063-44.618,209.699-116.742,281.827c-72.127,72.131-171.767,116.738-281.829,116.738
	s-209.702-44.607-281.837-116.738c-72.127-72.128-116.738-171.764-116.738-281.827c0-110.066,44.61-209.708,116.738-281.837
	c72.136-72.132,171.775-116.743,281.837-116.743s209.702,44.611,281.829,116.743c72.124,72.129,116.742,171.771,116.742,281.837
	H945.96h0.854c0-221.072-179.206-400.276-400.27-400.276c-221.068,0-400.278,179.205-400.278,400.276
	c0,221.065,179.21,400.272,400.278,400.272c221.064,0,400.27-179.207,400.27-400.272H945.96z"/>
<path fill="#161616" stroke="#000000" stroke-width="0.25" d="M952.205,554.565h-0.854c0,111.782-45.313,212.982-118.564,286.246
	c-73.256,73.255-174.453,118.564-286.244,118.564c-111.79,0-212.992-45.31-286.249-118.564
	c-73.259-73.264-118.572-174.464-118.572-286.246c0-111.796,45.313-212.986,118.572-286.252
	c73.26-73.258,174.459-118.568,286.249-118.568c111.791,0,212.988,45.31,286.244,118.568
	c73.252,73.267,118.564,174.457,118.564,286.252H952.205h0.85c0-224.519-182.005-406.523-406.511-406.523
	c-224.51,0-406.52,182.005-406.52,406.523c0,224.513,182.009,406.513,406.52,406.513c224.506,0,406.511-182,406.511-406.513H952.205
	z"/>
<path fill="#161616" stroke="#000000" stroke-width="0.25" d="M958.442,554.565h-0.85c0,113.511-46.01,216.265-120.395,290.656
	c-74.388,74.386-177.138,120.391-290.655,120.391c-113.509,0-216.267-46.001-290.663-120.391
	C181.5,770.83,135.486,668.076,135.486,554.565c0-113.517,46.014-216.275,120.395-290.664
	c74.396-74.388,177.154-120.4,290.663-120.4c113.517,0,216.267,46.012,290.655,120.4c74.385,74.392,120.395,177.147,120.395,290.664
	H958.442h0.849c0-227.968-184.786-412.764-412.748-412.764c-227.953,0.003-412.761,184.796-412.761,412.764
	c0,227.96,184.808,412.758,412.761,412.758c227.961,0,412.748-184.798,412.748-412.758H958.442z"/>
<path d="M964.683,554.565h-0.85c0,115.234-46.707,219.548-122.224,295.063c-75.512,75.525-179.829,122.229-295.066,122.229
	c-115.236,0-219.554-46.704-295.07-122.229C175.953,774.113,129.245,669.8,129.245,554.565
	c0-115.241,46.708-219.556,122.229-295.077c75.516-75.517,179.834-122.224,295.07-122.224c115.237,0,219.554,46.707,295.066,122.224
	c75.517,75.521,122.224,179.836,122.224,295.077H964.683h0.854c0-231.41-187.598-419.002-418.994-419.002
	c-231.404,0-419.001,187.592-419.001,419.002c0,231.405,187.598,418.99,419.001,418.99c231.396,0,418.994-187.585,418.994-418.99
	H964.683z"/>
<path fill="#161616" stroke="#1E1E1E" stroke-width="0.25" d="M970.925,554.565h-0.854c0,116.957-47.401,222.839-124.046,299.479
	c-76.641,76.649-182.526,124.058-299.482,124.058c-116.959,0-222.837-47.408-299.486-124.058
	c-76.644-76.641-124.053-182.522-124.053-299.479c0-116.961,47.409-222.84,124.053-299.489
	c76.649-76.649,182.527-124.048,299.486-124.048c116.956,0,222.841,47.398,299.482,124.048
	c76.645,76.649,124.046,182.528,124.046,299.489H970.925h0.853c0-234.859-190.384-425.244-425.234-425.244
	c-234.851,0-425.243,190.385-425.243,425.244c0,234.845,190.392,425.24,425.243,425.24c234.85,0,425.234-190.396,425.234-425.24
	H970.925z"/>
<path fill="#161616" stroke="#000000" stroke-width="0.25" d="M977.164,554.565h-0.853c0,118.681-48.102,226.121-125.872,303.896
	c-77.773,77.772-185.213,125.888-303.896,125.888c-118.679,0-226.119-48.115-303.9-125.888
	c-77.777-77.774-125.876-185.215-125.876-303.896c0-118.683,48.099-226.123,125.876-303.9
	c77.781-77.777,185.221-125.885,303.9-125.885c118.683,0,226.123,48.107,303.896,125.885
	c77.771,77.777,125.872,185.217,125.872,303.9H977.164h0.852c0-238.304-193.176-431.485-431.472-431.485
	c-238.302,0-431.48,193.182-431.48,431.485c0,238.299,193.178,431.478,431.48,431.478c238.296,0,431.472-193.179,431.472-431.478
	H977.164z"/>
<path d="M983.407,554.565h-0.851c0,120.404-48.804,229.398-127.71,308.309c-78.906,78.902-187.896,127.71-308.303,127.71
	c-120.406,0-229.406-48.808-308.312-127.71c-78.901-78.91-127.709-187.904-127.709-308.309c0-120.409,48.808-229.406,127.709-308.32
	c78.906-78.902,187.906-127.706,308.312-127.706c120.407,0,229.397,48.804,308.303,127.706
	c78.906,78.914,127.71,187.911,127.71,308.32H983.407h0.853c0-241.752-195.968-437.722-437.716-437.726
	c-241.748,0.004-437.721,195.974-437.721,437.726c0,241.746,195.973,437.715,437.721,437.715
	c241.749,0,437.712-195.969,437.716-437.715H983.407z"/>
<path fill="#161616" stroke="#000000" stroke-width="0.25" d="M989.647,554.565h-0.85c0,122.128-49.497,232.687-129.531,312.725
	c-80.039,80.031-190.593,129.532-312.723,129.532c-122.129,0-232.688-49.501-312.727-129.532
	c-80.034-80.038-129.536-190.597-129.536-312.725c0-122.132,49.501-232.694,129.536-312.731
	c80.039-80.031,190.598-129.531,312.727-129.531c122.13,0,232.684,49.5,312.723,129.531
	c80.034,80.037,129.531,190.6,129.531,312.731H989.647h0.849c0-245.195-198.766-443.964-443.953-443.964
	c-245.191,0-443.962,198.769-443.962,443.964c0,245.192,198.771,443.964,443.962,443.964c245.187,0,443.953-198.771,443.953-443.964
	H989.647z"/>
<path fill="#161616" stroke="#000000" stroke-width="0.25" d="M995.889,554.565h-0.854c0,123.852-50.194,235.97-131.357,317.136
	c-81.166,81.163-193.28,131.356-317.133,131.356s-235.971-50.193-317.138-131.356C148.239,790.535,98.043,678.417,98.043,554.565
	c0-123.855,50.195-235.977,131.362-317.138C310.573,156.254,422.69,106.06,546.543,106.06s235.967,50.195,317.133,131.368
	c81.163,81.161,131.357,193.282,131.357,317.138H995.889h0.853c0-248.64-201.561-450.209-450.198-450.209
	c-248.642,0-450.198,201.569-450.198,450.209c0,248.635,201.557,450.2,450.198,450.2c248.637,0,450.198-201.565,450.198-450.2
	H995.889z"/>
<path stroke="#000000" stroke-width="0.5" d="M1002.125,554.565h-0.845c0,125.575-50.897,239.255-133.192,321.547
	c-82.291,82.295-195.964,133.191-321.544,133.191c-125.572,0-239.254-50.896-321.548-133.191
	c-82.3-82.292-133.193-195.972-133.193-321.547c0-125.581,50.893-239.262,133.193-321.557
	C307.29,150.715,420.971,99.816,546.543,99.816c125.581,0,239.253,50.899,321.544,133.192
	c82.295,82.295,133.192,195.977,133.192,321.557H1002.125h0.857c0-252.089-204.359-456.45-456.439-456.45
	c-252.084,0-456.448,204.361-456.448,456.45c0,252.086,204.363,456.438,456.448,456.438c252.08,0,456.439-204.352,456.439-456.438
	H1002.125z"/>
<path fill="#3F3F3F" stroke="#000000" d="M1008.37,554.567h-0.853c0,127.296-51.591,242.532-135.011,325.959
	c-83.423,83.42-198.663,135.019-325.963,135.019c-127.296,0-242.536-51.599-325.959-135.019
	C137.156,797.1,85.553,681.863,85.553,554.567c0-127.302,51.603-242.546,135.031-325.972
	c83.423-83.423,198.664-135.016,325.959-135.016c127.3,0,242.541,51.593,325.963,135.016
	c83.42,83.426,135.011,198.67,135.011,325.972H1008.37h0.851c0-255.537-207.151-462.693-462.677-462.693
	c-255.54,0-462.688,207.156-462.688,462.693c0.003,255.522,207.149,462.681,462.688,462.681
	c255.526,0,462.677-207.158,462.677-462.681H1008.37z"/>
<path fill="#161616" stroke="#000000" stroke-width="0.25" d="M1014.611,554.567h-0.853c0,129.023-52.293,245.815-136.841,330.375
	c-84.556,84.552-201.351,136.845-330.375,136.845c-129.023,0-245.827-52.293-330.379-136.845
	c-84.552-84.56-136.848-201.352-136.848-330.375c0-129.025,52.296-245.826,136.848-330.383
	c84.552-84.552,201.355-136.85,330.379-136.85c129.024,0,245.819,52.298,330.375,136.85
	c84.548,84.557,136.841,201.358,136.841,330.383H1014.611h0.845c0-258.99-209.938-468.932-468.913-468.932
	c-258.982,0-468.922,209.942-468.922,468.932c0,258.969,209.94,468.922,468.922,468.922c258.975,0,468.913-209.953,468.913-468.922
	H1014.611z"/>
<path fill="#161616" stroke="#000000" stroke-width="0.25" d="M1020.849,554.567h-0.85c0,130.747-52.994,249.098-138.665,334.785
	c-85.689,85.681-204.044,138.679-334.791,138.679c-130.742,0-249.109-52.998-334.794-138.679
	C126.073,803.665,73.075,685.314,73.075,554.567c0-130.749,52.998-249.114,138.674-334.8
	c85.685-85.676,204.052-138.675,334.794-138.675c130.747,0,249.101,52.999,334.791,138.675
	c85.671,85.686,138.665,204.051,138.665,334.8H1020.849h0.857c0-262.435-212.738-475.173-475.163-475.173
	c-262.428,0-475.167,212.738-475.167,475.173c0,262.417,212.739,475.162,475.167,475.162c262.424,0,475.155-212.745,475.163-475.162
	H1020.849z"/>
<path d="M1027.089,554.567h-0.849c0,132.467-53.688,252.387-140.499,339.202c-86.81,86.808-206.724,140.504-339.198,140.504
	c-132.466,0-252.393-53.696-339.205-140.504c-86.809-86.815-140.5-206.735-140.5-339.202c0-132.478,53.691-252.396,140.5-339.209
	c86.813-86.813,206.739-140.5,339.205-140.5c132.474,0,252.388,53.687,339.198,140.5c86.812,86.813,140.499,206.731,140.499,339.209
	H1027.089h0.854c0-265.882-215.528-481.414-481.4-481.414c-265.871,0-481.408,215.532-481.408,481.414
	c0,265.862,215.537,481.409,481.408,481.409c265.872,0,481.4-215.547,481.4-481.409H1027.089z"/>
<path fill="#161616" stroke="#000000" stroke-width="0.25" d="M1033.339,554.567h-0.857c0,134.189-54.39,255.671-142.326,343.612
	c-87.937,87.94-209.418,142.334-343.612,142.334c-134.189,0-255.675-54.394-343.616-142.334
	C114.982,810.238,60.597,688.757,60.597,554.567c0-134.196,54.385-255.681,142.331-343.622
	c87.94-87.941,209.422-142.331,343.616-142.331c134.194,0,255.675,54.39,343.612,142.331
	c87.934,87.941,142.326,209.426,142.326,343.622H1033.339h0.846c0-269.328-218.322-487.655-487.641-487.655
	c-269.323,0-487.649,218.327-487.649,487.655c0,269.319,218.326,487.645,487.649,487.645c269.319,0,487.641-218.325,487.641-487.645
	H1033.339z"/>
<path stroke="#000000" stroke-width="0.5" d="M1039.576,554.567h-0.854c0,135.912-55.083,258.953-144.157,348.026
	c-89.065,89.065-212.104,144.157-348.022,144.157c-135.917,0-258.953-55.092-348.031-144.157
	C109.446,813.521,54.356,690.479,54.356,554.567c0-135.918,55.09-258.966,144.156-348.037
	c89.078-89.068,212.11-144.158,348.031-144.158c135.917,0,258.957,55.09,348.022,144.158
	c89.074,89.071,144.157,212.119,144.157,348.037H1039.576h0.85c0-272.775-221.117-493.901-493.882-493.901
	c-272.764,0-493.886,221.125-493.886,493.901c0,272.766,221.122,493.883,493.886,493.883c272.765,0,493.882-221.117,493.882-493.883
	H1039.576z"/>
<path fill="#161616" stroke="#000000" stroke-width="0.25" d="M1045.817,554.567h-0.851c0,137.637-55.787,262.235-145.985,352.438
	c-90.203,90.197-214.798,145.981-352.438,145.981S284.3,997.203,194.102,907.006C103.899,816.803,48.111,692.204,48.111,554.567
	c0-137.642,55.789-262.244,145.991-352.447c90.198-90.2,214.802-145.991,352.442-145.991s262.235,55.792,352.438,145.991
	c90.198,90.203,145.985,214.805,145.985,352.447H1045.817h0.849c0-276.222-223.907-500.138-500.123-500.138
	c-276.216,0-500.135,223.916-500.135,500.138c0.008,276.216,223.919,500.127,500.135,500.127
	c276.215,0,500.123-223.911,500.123-500.127H1045.817z"/>
<path stroke="#282828" stroke-width="0.25" d="M1052.059,554.567h-0.854c0,139.36-56.478,265.523-147.811,356.85
	c-91.323,91.33-217.486,147.816-356.85,147.816c-139.359,0-265.531-56.486-356.858-147.816
	C98.359,820.091,41.87,693.928,41.87,554.567c0-139.361,56.49-265.533,147.816-356.864
	c91.327-91.334,217.499-147.812,356.858-147.812c139.364,0,265.527,56.478,356.85,147.812
	c91.333,91.331,147.811,217.502,147.811,356.864H1052.059h0.849c0-279.672-226.706-506.381-506.364-506.381
	c-279.663,0-506.368,226.708-506.368,506.381c0,279.658,226.706,506.368,506.368,506.368c279.658,0,506.364-226.71,506.364-506.368
	H1052.059z"/>
<path fill="#161616" stroke="#282828" stroke-width="0.25" d="M1058.295,554.567h-0.846c0,141.083-57.187,268.806-149.646,361.265
	c-92.459,92.458-220.174,149.646-361.26,149.646c-141.091,0-268.806-57.188-361.264-149.646
	C92.812,823.373,35.633,695.65,35.633,554.567c0-141.091,57.179-268.812,149.646-361.274
	c92.458-92.457,220.173-149.646,361.264-149.646c141.086,0,268.801,57.189,361.26,149.646
	c92.459,92.463,149.642,220.182,149.646,361.274H1058.295h0.854c0-283.115-229.495-512.624-512.605-512.624
	S33.926,271.452,33.926,554.567c0,283.105,229.508,512.608,512.618,512.608s512.605-229.503,512.605-512.608H1058.295z"/>
<path d="M1064.541,554.567h-0.85c0,142.814-57.885,272.092-151.469,365.68c-93.588,93.579-222.869,151.469-365.679,151.469
	c-142.802,0-272.088-57.89-365.684-151.469C87.272,826.659,29.392,697.382,29.392,554.567c0-142.811,57.88-272.098,151.468-365.684
	C274.455,95.287,403.737,37.404,546.543,37.404c142.81,0,272.091,57.883,365.679,151.479
	c93.584,93.586,151.469,222.874,151.469,365.684H1064.541h0.853c0-286.562-232.302-518.864-518.85-518.864
	C259.992,35.707,27.689,268.005,27.689,554.567c0,286.544,232.303,518.847,518.854,518.847c286.548,0,518.85-232.303,518.85-518.847
	H1064.541z"/>
<path d="M1070.781,554.567h-0.858c0,144.529-58.572,275.375-153.289,370.09c-94.711,94.72-225.558,153.299-370.09,153.299
	c-144.538,0-275.375-58.579-370.094-153.299C81.733,829.942,23.151,699.097,23.151,554.567
	c0-144.537,58.583-275.379,153.298-370.105C271.169,89.75,402.005,31.167,546.543,31.167c144.533,0,275.379,58.583,370.09,153.295
	c94.717,94.726,153.289,225.568,153.289,370.105H1070.781h0.85c0-290.006-235.09-525.102-525.087-525.102
	c-289.994,0-525.091,235.095-525.091,525.102c0,289.998,235.097,525.091,525.091,525.091c289.998,0,525.087-235.093,525.087-525.091
	H1070.781z"/>
<path d="M550.006,425.53c-68.75,0-124.477,55.729-124.477,124.477c0,68.744,55.727,124.462,124.477,124.462
	c68.738,0,124.469-55.718,124.469-124.462C674.475,481.258,618.744,425.53,550.006,425.53z M920.343,552.171
	c0,203.905-165.296,369.21-369.203,369.21c-203.912,0-369.204-165.305-369.204-369.21c0-203.908,165.292-369.208,369.204-369.208
	C755.047,182.963,920.343,348.263,920.343,552.171z"/>
<path fill="none" d="M550.006,425.53c-68.75,0-124.477,55.729-124.477,124.477c0,68.744,55.727,124.462,124.477,124.462
	c68.738,0,124.469-55.718,124.469-124.462C674.475,481.258,618.744,425.53,550.006,425.53z M840.896,551.285
	c0,160.681-130.254,290.934-290.938,290.934c-160.671,0-290.926-130.253-290.926-290.934c0-160.67,130.254-290.932,290.926-290.932
	C710.642,260.353,840.896,390.615,840.896,551.285z"/>
<path fill="#BF0000" d="M549.957,842.219c160.685,0,290.938-130.253,290.938-290.934c0-0.723-0.033-1.441-0.036-2.165H674.455
	c0,0.293,0.02,0.587,0.02,0.887c0,68.744-55.73,124.462-124.469,124.462c-68.75,0-124.477-55.718-124.477-124.462
	c0-0.299,0.017-0.593,0.017-0.887H259.06c-0.004,0.724-0.029,1.442-0.029,2.165C259.031,711.966,389.286,842.219,549.957,842.219z"
	/>
<linearGradient id="SVGID_3_" gradientUnits="userSpaceOnUse" x1="505.2324" y1="218.4941" x2="625.8586" y2="229.0476">
	<stop  offset="0" style="stop-color:#000000"/>
	<stop  offset="0.1798" style="stop-color:#090909"/>
	<stop  offset="0.4749" style="stop-color:#222222"/>
	<stop  offset="0.5169" style="stop-color:#262626"/>
	<stop  offset="0.5629" style="stop-color:#212121"/>
	<stop  offset="0.8336" style="stop-color:#090909"/>
	<stop  offset="1" style="stop-color:#000000"/>
</linearGradient>
<path fill="url(#SVGID_3_)" d="M598.482,264.384c0,0-18.218-3.431-36.736-3.792c-18.518-0.361-32.071,0.468-32.071,0.468
	l-21.551-75.619c0,0,29.4-1.584,57.212-1.584c21.383,0,63.831,7.371,63.831,7.371L598.482,264.384z"/>
</svg>
