<?xml version="1.0" standalone="no"?><!DOCTYPE svg PUBLIC "-//W3C//DTD SVG 1.1//EN" "http://www.w3.org/Graphics/SVG/1.1/DTD/svg11.dtd"><svg t="1517071280620" class="icon" style="" viewBox="0 0 1190 1024" version="1.1" xmlns="http://www.w3.org/2000/svg" p-id="2809" xmlns:xlink="http://www.w3.org/1999/xlink" width="148.75" height="128"><defs><style type="text/css"></style></defs><path d="M1189.362822 259.107554c0 31.716342 0 63.432684 0 95.149026-4.757451 16.915382-8.457691 34.35937-13.743748 51.274753-28.016102 85.634123-80.876672 154.88147-144.837961 216.199731-130.565608 125.808156-261.659821 251.616313-392.225428 377.424469-33.830765 32.773553-52.86057 32.773553-87.21994 0-128.451185-124.222339-256.90237-248.973284-386.410766-372.138412C85.105517 550.8979 22.201439 465.263776 0 354.25658c0-31.716342 0-63.432684 0-95.149026 1.057211-3.70024 2.643028-7.40048 3.171634-11.10072 10.043508-64.489895 35.416582-121.579311 82.991095-167.039401C144.309356 25.463835 217.785548 6.43403 295.490586 1.147973 370.023989-3.609478 435.571096 22.820807 495.832145 63.523445c34.887976 23.787256 67.132924 50.746147 100.435083 76.647826 15.329565-13.215142 30.659131-27.487496 47.045907-41.231244 90.92018-73.476192 190.298052-117.350465 310.820151-91.448786 88.805757 19.029805 160.696132 60.26105 200.870166 144.309356C1171.390228 186.159968 1178.262102 223.690972 1189.362822 259.107554z" p-id="2810" fill="#d13c39"></path></svg>