<?xml version="1.0" standalone="no"?><!DOCTYPE svg PUBLIC "-//W3C//DTD SVG 1.1//EN" "http://www.w3.org/Graphics/SVG/1.1/DTD/svg11.dtd"><svg t="1517071324285" class="icon" style="" viewBox="0 0 1190 1024" version="1.1" xmlns="http://www.w3.org/2000/svg" p-id="2986" xmlns:xlink="http://www.w3.org/1999/xlink" width="148.75" height="128"><defs><style type="text/css"></style></defs><path d="M1154.903261 150.419328c-45.47696-92.540325-127.441248-132.200465-225.269592-147.006917-112.105994-16.392858-202.00231 28.026499-285.024202 95.713137-16.392858 13.220046-32.256913 27.497697-47.592167 40.717743-33.843319-25.911291-66.100232-53.408988-100.472353-76.67627C435.732732 22.449278 370.161302-3.990815 295.600239 0.768402 207.819131 6.585222 126.912446 29.852504 67.157836 100.711953 31.19931 143.544904 11.633641 193.252279 3.172811 247.71887c-0.528802 3.701613-2.115207 7.403226-3.172811 11.104839 0 31.728112 0 63.456223 0 95.184335 19.036867 95.713137 67.157836 176.091019 135.373276 243.248855 140.132493 137.488483 281.851391 272.861759 423.041488 408.763837 24.853687 23.796084 48.120969 23.796084 72.974657 0 133.78687-128.498852 267.573741-256.997704 401.360611-386.025357 77.205071-74.03226 135.902078-159.16936 157.054152-265.987335 0-31.728112 0-63.456223 0-95.184335C1178.699345 222.865183 1171.824921 184.262647 1154.903261 150.419328zM1080.342199 406.88823c-32.785715 75.089864-89.896316 130.614059-147.535719 186.138255-106.289174 101.529957-211.520744 203.059914-317.281116 305.118673-6.345622 5.81682-12.162443 11.633641-20.094471 19.565669-37.544932-35.958526-73.503458-70.859449-109.461985-105.760372-98.885948-95.713137-198.829499-189.839868-295.600239-287.13941-49.707375-50.236177-88.838712-109.461985-99.41475-181.379038-12.162443-86.194703 10.576037-180.321434 89.896316-222.096781 84.079496-43.890554 170.803001-47.592167 251.180883 7.403226 43.890554 29.612904 83.550694 66.100232 122.682031 102.058759 29.084102 26.440093 52.351384 28.5553 79.320279 0 52.351384-54.995393 108.933183-103.645164 181.379038-130.614059 67.686638-25.382489 202.531112-6.874424 250.652081 74.03226C1111.012707 248.776474 1114.71432 327.039149 1080.342199 406.88823z" p-id="2987" fill="#999999"></path></svg>