<?xml version="1.0" standalone="no"?><!DOCTYPE svg PUBLIC "-//W3C//DTD SVG 1.1//EN" "http://www.w3.org/Graphics/SVG/1.1/DTD/svg11.dtd"><svg t="1517075400580" class="icon" style="" viewBox="0 0 1024 1024" version="1.1" xmlns="http://www.w3.org/2000/svg" p-id="8573" xmlns:xlink="http://www.w3.org/1999/xlink" width="128" height="128"><defs><style type="text/css"></style></defs><path d="M896 544H384c-17.6 0-32-14.4-32-32s14.4-32 32-32h512c17.6 0 32 14.4 32 32s-14.4 32-32 32zM896 864H384c-17.6 0-32-14.4-32-32s14.4-32 32-32h512c17.6 0 32 14.4 32 32s-14.4 32-32 32zM896 224H384c-17.6 0-32-14.4-32-32s14.4-32 32-32h512c17.6 0 32 14.4 32 32s-14.4 32-32 32zM224 544H128c-17.6 0-32-14.4-32-32s14.4-32 32-32h96c17.6 0 32 14.4 32 32s-14.4 32-32 32zM224 864H128c-17.6 0-32-14.4-32-32s14.4-32 32-32h96c17.6 0 32 14.4 32 32s-14.4 32-32 32zM224 224H128c-17.6 0-32-14.4-32-32s14.4-32 32-32h96c17.6 0 32 14.4 32 32s-14.4 32-32 32z" p-id="8574" fill="#999999"></path></svg>