<?xml version="1.0" standalone="no"?><!DOCTYPE svg PUBLIC "-//W3C//DTD SVG 1.1//EN" "http://www.w3.org/Graphics/SVG/1.1/DTD/svg11.dtd"><svg t="1518106127827" class="icon" style="" viewBox="0 0 1024 1024" version="1.1" xmlns="http://www.w3.org/2000/svg" p-id="9137" xmlns:xlink="http://www.w3.org/1999/xlink" width="128" height="128"><defs><style type="text/css"></style></defs><path d="M819.2 414.72v-102.4c0-168.96-138.24-307.2-307.2-307.2s-307.2 138.24-307.2 307.2v102.4h51.2v-102.4c0-143.36 112.64-256 256-256s256 112.64 256 256v102.4h51.2z" fill="#666666" p-id="9138"></path><path d="M819.2 455.68c30.72 0 51.2 20.48 51.2 51.2v409.6c0 30.72-20.48 51.2-51.2 51.2H204.8c-30.72 0-51.2-20.48-51.2-51.2v-409.6c0-30.72 20.48-51.2 51.2-51.2h614.4m0-51.2H204.8c-56.32 0-102.4 46.08-102.4 102.4v409.6c0 56.32 46.08 102.4 102.4 102.4h614.4c56.32 0 102.4-46.08 102.4-102.4v-409.6c0-56.32-46.08-102.4-102.4-102.4z" fill="#666666" p-id="9139"></path><path d="M512 670.72v102.4-102.4m0-51.2c-30.72 0-51.2 20.48-51.2 51.2v102.4c0 30.72 20.48 51.2 51.2 51.2s51.2-20.48 51.2-51.2v-102.4c0-30.72-20.48-51.2-51.2-51.2z" fill="#666666" p-id="9140"></path></svg>