<?xml version="1.0" standalone="no"?><!DOCTYPE svg PUBLIC "-//W3C//DTD SVG 1.1//EN" "http://www.w3.org/Graphics/SVG/1.1/DTD/svg11.dtd"><svg t="1518105723143" class="icon" style="" viewBox="0 0 1024 1024" version="1.1" xmlns="http://www.w3.org/2000/svg" p-id="8249" xmlns:xlink="http://www.w3.org/1999/xlink" width="128" height="128"><defs><style type="text/css"></style></defs><path d="M714.666667 87.466667H311.466667c-46.933333 0-85.333333 38.4-85.333334 85.333333V851.2c0 46.933333 38.4 85.333333 85.333334 85.333333h403.2c46.933333 0 85.333333-38.4 85.333333-85.333333V172.8c0-46.933333-38.4-85.333333-85.333333-85.333333z m-445.866667 85.333333c0-23.466667 19.2-42.666667 42.666667-42.666667h403.2c23.466667 0 42.666667 19.2 42.666666 42.666667v34.133333H268.8V172.8z m445.866667 721.066667H311.466667c-23.466667 0-42.666667-19.2-42.666667-42.666667v-34.133333H405.333333c12.8 0 21.333333-8.533333 21.333334-21.333334s-8.533333-21.333333-21.333334-21.333333h-136.533333V249.6h488.533333v524.8H618.666667c-12.8 0-21.333333 8.533333-21.333334 21.333333s8.533333 21.333333 21.333334 21.333334h138.666666v34.133333c0 23.466667-19.2 42.666667-42.666666 42.666667z" p-id="8250" fill="#666666"></path><path d="M512 795.733333m-32 0a32 32 0 1 0 64 0 32 32 0 1 0-64 0Z" p-id="8251" fill="#666666"></path></svg>