<?xml version="1.0" standalone="no"?><!DOCTYPE svg PUBLIC "-//W3C//DTD SVG 1.1//EN" "http://www.w3.org/Graphics/SVG/1.1/DTD/svg11.dtd"><svg t="1518186617377" class="icon" style="" viewBox="0 0 1024 1024" version="1.1" xmlns="http://www.w3.org/2000/svg" p-id="1983" xmlns:xlink="http://www.w3.org/1999/xlink" width="128" height="128"><defs><style type="text/css"></style></defs><path d="M813.6704 253.00992q59.00288 59.00288 91.3408 135.65952 33.66912 79.33952 33.66912 165.9904t-33.66912 165.9904q-32.33792 76.67712-91.3408 135.65952t-135.65952 91.3408q-79.33952 33.66912-165.9904 33.66912t-165.9904-33.66912q-76.67712-32.33792-135.65952-91.3408t-91.3408-135.65952q-33.66912-79.33952-33.66912-165.9904t33.66912-165.9904q32.33792-76.67712 91.3408-135.65952 12.32896-12.32896 30.0032-12.32896t30.33088 12.32896 12.67712 30.0032-12.67712 30.33088q-47.0016 47.0016-73.33888 108.3392-26.66496 64-26.66496 132.99712t26.66496 132.99712q26.33728 61.3376 73.33888 108.3392t108.3392 73.33888q64 26.66496 132.99712 26.66496t132.99712-26.66496q61.3376-26.33728 108.3392-73.33888t73.33888-108.3392q26.66496-64 26.66496-132.99712t-26.66496-132.99712q-26.33728-61.3376-73.33888-108.3392-12.67712-12.67712-12.67712-30.33088t12.67712-30.0032 30.33088-12.32896 30.0032 12.32896zM512 42.65984q17.67424 0 30.16704 12.4928t12.4928 30.16704l0 426.65984q0 17.67424-12.4928 30.16704t-30.16704 12.4928-30.16704-12.4928-12.4928-30.16704l0-426.65984q0-17.67424 12.4928-30.16704t30.16704-12.4928z" p-id="1984" fill="#666666"></path></svg>