<?xml version="1.0" standalone="no"?><!DOCTYPE svg PUBLIC "-//W3C//DTD SVG 1.1//EN" "http://www.w3.org/Graphics/SVG/1.1/DTD/svg11.dtd"><svg t="1518102835483" class="icon" style="" viewBox="0 0 1025 1024" version="1.1" xmlns="http://www.w3.org/2000/svg" p-id="3718" xmlns:xlink="http://www.w3.org/1999/xlink" width="128.125" height="128"><defs><style type="text/css"></style></defs><path d="M883.255901 785.645204c-1.629182-0.32952-3.312601-0.505538-5.043095-0.505538L455.592657 785.139666l-18.825644-71.137519 355.556607-26.457828c13.565598-0.988561 23.826781-12.023401 23.635414-25.005686l67.632528-375.294061c0.590476-2.901212 0.62834-5.785027 0.190344-8.54911-1.169695-12.628204-12.12983-22.523026-25.511224-22.523026L315.610957 256.172435 288.272021 152.865743c-0.330544-13.396744-11.651923-24.154255-25.605373-24.154255L90.457444 128.711488c-14.135607 0-25.595139 11.080891-25.595139 24.755988 0 13.674073 11.458509 24.754964 25.595139 24.754964l151.690931 0 160.617659 606.914156-48.157053 0c-1.633275 0-3.224593 0.157597-4.767812 0.4513-3.025038-0.29882-6.096127-0.4513-9.203034-0.4513-49.483322 0-89.590662 38.782095-89.590662 86.671029 0 47.836743 40.105294 86.646469 89.590662 86.646469s89.592709-38.809726 89.592709-86.646469c0-14.191891-3.520342-27.583518-9.767926-39.404295l11.150479 0c2.332227 0.32031 4.739158 0.330544 7.157347 0l354.954874 0c-6.247584 11.820777-9.774066 25.212404-9.774066 39.404295 0 47.836743 40.135994 86.646469 89.619316 86.646469 49.458761 0 89.591685-38.809726 89.591685-86.646469C963.159482 827.092116 928.161754 790.320914 883.255901 785.645204zM340.637111 919.055939c-26.998159 0-48.887729-21.135357-48.887729-47.243197 0-26.105793 21.89264-47.294365 48.887729-47.294365 27.001229 0 48.863168 21.188571 48.863168 47.294365C389.500279 897.918535 367.63834 919.055939 340.637111 919.055939zM423.872736 665.268945l-95.158738-359.58044 499.594887 0-60.199898 334.019072L423.872736 665.268945zM873.56575 919.055939c-26.998159 0-48.863168-21.135357-48.863168-47.243197 0-26.105793 21.865009-47.294365 48.863168-47.294365 26.972575 0 48.864192 21.188571 48.864192 47.294365C922.430964 897.918535 900.540372 919.055939 873.56575 919.055939z" p-id="3719" fill="#999999"></path></svg>