<?xml version="1.0" standalone="no"?><!DOCTYPE svg PUBLIC "-//W3C//DTD SVG 1.1//EN" "http://www.w3.org/Graphics/SVG/1.1/DTD/svg11.dtd"><svg t="1517384618309" class="icon" style="" viewBox="0 0 1024 1024" version="1.1" xmlns="http://www.w3.org/2000/svg" p-id="2234" xmlns:xlink="http://www.w3.org/1999/xlink" width="128" height="128"><defs><style type="text/css"></style></defs><path d="M370.752 608L129.6 849.152a32 32 0 0 0 45.248 45.248L416 653.248V768a32 32 0 0 0 64 0v-192a31.904 31.904 0 0 0-32-32H256a32 32 0 0 0 0 64h114.752z m182.624-137.376A31.904 31.904 0 0 1 544 448V256a32 32 0 0 1 64 0v114.752l241.152-241.152a32 32 0 1 1 45.248 45.248L653.248 416H768a32 32 0 0 1 0 64h-192a31.904 31.904 0 0 1-22.624-9.376z" fill="#656565" p-id="2235"></path></svg>